<svg width="16" height="16" xmlns="http://www.w3.org/2000/svg" xmlns:xlink="http://www.w3.org/1999/xlink" xml:space="preserve" overflow="hidden"><defs><clipPath id="clip0"><rect x="632" y="352" width="16" height="16"/></clipPath></defs><g clip-path="url(#clip0)" transform="translate(-632 -352)"><path d="M638 365C638 366.105 636.88 367 635.5 367 634.12 367 633 366.105 633 365 633 363.896 634.12 363 635.5 363 636.88 363 638 363.896 638 365ZM647 363C647 364.105 645.88 365 644.5 365 643.12 365 642 364.105 642 363 642 361.895 643.12 361 644.5 361 645.88 361 647 361.895 647 363Z" fill="#FFFFFF"/><path d="M646 363 646 354 647 354 647 363 646 363ZM638 355 638 365 637 365 637 355 638 355Z" fill="#FFFFFF" fill-rule="evenodd"/><path d="M637 354.905C637 354.391 637.389 353.961 637.9 353.91L645.9 353.11C646.45 353.055 646.94 353.455 646.995 354.005 646.998 354.038 647 354.072 647 354.105L647 355 637 356 637 354.905Z" fill="#FFFFFF"/></g></svg>