<svg width="16" height="16" xmlns="http://www.w3.org/2000/svg" xmlns:xlink="http://www.w3.org/1999/xlink" xml:space="preserve" overflow="hidden"><defs><clipPath id="clip0"><rect x="530" y="212" width="16" height="16"/></clipPath></defs><g clip-path="url(#clip0)" transform="translate(-530 -212)"><path d="M535.5 215.5C536.328 215.5 537 216.172 537 217L537 223C537 223.828 536.328 224.5 535.5 224.5 534.672 224.5 534 223.828 534 223L534 217C534 216.172 534.672 215.5 535.5 215.5ZM540.5 215.5C541.328 215.5 542 216.172 542 217L542 223C542 223.828 541.328 224.5 540.5 224.5 539.672 224.5 539 223.828 539 223L539 217C539 216.172 539.672 215.5 540.5 215.5Z" fill="#FFFFFF"/></g></svg>