<svg width="16" height="16" xmlns="http://www.w3.org/2000/svg" xmlns:xlink="http://www.w3.org/1999/xlink" xml:space="preserve" overflow="hidden"><defs><clipPath id="clip0"><rect x="249" y="265" width="16" height="16"/></clipPath></defs><g clip-path="url(#clip0)" transform="translate(-249 -265)"><path d="M265 273C265 277.418 261.418 281 257 281 252.582 281 249 277.418 249 273 249 268.582 252.582 265 257 265 261.418 265 265 268.582 265 273ZM255.79 270.093C255.565 269.933 255.253 269.985 255.093 270.21 255.032 270.295 255 270.396 255 270.5L255 275.5C255 275.776 255.224 276 255.5 276 255.604 276 255.705 275.967 255.79 275.907L259.29 273.407C259.515 273.247 259.567 272.934 259.407 272.71 259.374 272.665 259.335 272.625 259.29 272.593L255.79 270.093Z" fill="#FF0000"/></g></svg>