<svg width="16" height="16" xmlns="http://www.w3.org/2000/svg" xmlns:xlink="http://www.w3.org/1999/xlink" xml:space="preserve" overflow="hidden"><defs><clipPath id="clip0"><rect x="281" y="199" width="16" height="16"/></clipPath></defs><g clip-path="url(#clip0)" transform="translate(-281 -199)"><path d="M292 203 292 204.466C292 204.604 292.112 204.716 292.25 204.716 292.309 204.716 292.365 204.695 292.41 204.658L294.77 202.692C294.876 202.604 294.89 202.446 294.802 202.34 294.792 202.328 294.782 202.318 294.77 202.308L292.41 200.342C292.304 200.254 292.146 200.268 292.058 200.374 292.021 200.419 292 200.476 292 200.534L292 202 286 202C283.239 201.999 280.999 204.237 280.999 206.999 280.998 207.77 281.177 208.532 281.52 209.223 281.643 209.47 281.944 209.571 282.191 209.448 282.438 209.325 282.539 209.024 282.416 208.777 281.435 206.798 282.243 204.398 284.223 203.416 284.775 203.142 285.383 203 286 203L292 203ZM296.48 204.777C296.357 204.53 296.056 204.429 295.809 204.552 295.562 204.675 295.461 204.976 295.584 205.223 296.565 207.202 295.757 209.602 293.777 210.584 293.225 210.858 292.617 211 292 211L286.001 211 286.001 209.534C286.001 209.396 285.889 209.284 285.751 209.284 285.692 209.284 285.636 209.305 285.591 209.342L283.231 211.308C283.125 211.396 283.111 211.554 283.199 211.66 283.209 211.672 283.219 211.682 283.231 211.692L285.591 213.658C285.697 213.746 285.855 213.732 285.943 213.626 285.98 213.581 286.001 213.524 286.001 213.466L286.001 212 292.001 212C294.762 212.001 297.002 209.763 297.002 207.001 297.003 206.23 296.824 205.468 296.481 204.777Z" fill="#FFFFFF"/><path d="M290 204.5C290 204.224 289.777 204 289.501 203.999 289.368 203.999 289.24 204.052 289.146 204.146L287.396 205.896C287.201 206.092 287.201 206.408 287.396 206.604 287.592 206.8 287.908 206.8 288.104 206.604L289 205.707 289 209.5C289 209.776 289.224 210 289.5 210 289.776 210 290 209.776 290 209.5L290 204.5Z" fill="#FFFFFF"/></g></svg>