<svg width="16" height="16" xmlns="http://www.w3.org/2000/svg" xmlns:xlink="http://www.w3.org/1999/xlink" xml:space="preserve" overflow="hidden"><defs><clipPath id="clip0"><rect x="411" y="204" width="16" height="16"/></clipPath></defs><g clip-path="url(#clip0)" transform="translate(-411 -204)"><path d="M422 209.466 422 208 416 208C413.791 208 412 209.79 412 212 412 212.616 412.142 213.225 412.416 213.777 412.539 214.024 412.438 214.325 412.191 214.448 411.944 214.571 411.643 214.47 411.52 214.223 410.292 211.75 411.302 208.749 413.776 207.521 414.467 207.178 415.228 207 416 207L422 207 422 205.534C422 205.396 422.112 205.284 422.25 205.284 422.309 205.284 422.365 205.305 422.41 205.342L424.77 207.308C424.89 207.408 424.89 207.592 424.77 207.692L422.41 209.658C422.304 209.746 422.146 209.732 422.058 209.626 422.021 209.581 422 209.524 422 209.466ZM425.81 209.552C426.057 209.429 426.357 209.53 426.48 209.777 427.708 212.25 426.698 215.251 424.224 216.479 423.533 216.822 422.772 217 422 217L416 217 416 218.466C416 218.604 415.888 218.716 415.75 218.716 415.691 218.716 415.635 218.695 415.59 218.658L413.23 216.692C413.124 216.604 413.11 216.446 413.198 216.34 413.208 216.328 413.218 216.318 413.23 216.308L415.59 214.342C415.696 214.254 415.854 214.268 415.942 214.374 415.979 214.419 416 214.476 416 214.534L416 216 422 216C424.209 216.001 426.001 214.21 426.001 212.001 426.002 211.384 425.859 210.776 425.585 210.223 425.462 209.976 425.563 209.676 425.81 209.553Z" fill="#FFFFFF"/></g></svg>