<svg width="16" height="16" xmlns="http://www.w3.org/2000/svg" xmlns:xlink="http://www.w3.org/1999/xlink" xml:space="preserve" overflow="hidden"><defs><clipPath id="clip0"><rect x="668" y="213" width="16" height="16"/></clipPath></defs><g clip-path="url(#clip0)" transform="translate(-668 -213)"><path d="M668 216.5C668 216.224 668.224 216 668.5 216L669 216C671.202 216 672.827 217.24 673.874 218.418 674.364 218.97 674.739 219.52 675 219.95 675.26 219.52 675.636 218.97 676.126 218.418 677.173 217.24 678.798 216 681 216L681 217C679.202 217 677.827 218.01 676.874 219.082 676.359 219.666 675.916 220.31 675.556 221 675.916 221.69 676.358 222.334 676.873 222.918 677.828 223.99 679.204 225 681 225L681 226C678.798 226 677.173 224.76 676.126 223.582 675.706 223.106 675.329 222.593 675 222.05 674.74 222.48 674.364 223.03 673.874 223.582 672.827 224.76 671.202 226 669 226L668.5 226C668.224 226 668 225.776 668 225.5 668 225.224 668.224 225 668.5 225L669 225C670.798 225 672.173 223.99 673.126 222.918 673.641 222.334 674.084 221.69 674.444 221 674.084 220.31 673.642 219.666 673.127 219.082 672.172 218.01 670.796 217 669 217L668.5 217C668.224 217 668 216.776 668 216.5Z" fill="#FFFFFF" fill-rule="evenodd"/><path d="M681 218.466 681 214.534C681 214.396 681.112 214.284 681.25 214.284 681.308 214.284 681.365 214.305 681.41 214.342L683.77 216.308C683.89 216.408 683.89 216.592 683.77 216.692L681.41 218.658C681.304 218.746 681.146 218.732 681.058 218.626 681.021 218.581 681 218.524 681 218.466ZM681 227.466 681 223.534C681 223.396 681.112 223.284 681.25 223.284 681.308 223.284 681.365 223.305 681.41 223.342L683.77 225.308C683.89 225.408 683.89 225.592 683.77 225.692L681.41 227.658C681.304 227.746 681.146 227.732 681.058 227.626 681.021 227.581 681 227.524 681 227.466Z" fill="#FFFFFF"/></g></svg>