<svg width="16" height="16" xmlns="http://www.w3.org/2000/svg" xmlns:xlink="http://www.w3.org/1999/xlink" xml:space="preserve" overflow="hidden"><defs><clipPath id="clip0"><rect x="357" y="344" width="16" height="16"/></clipPath></defs><g clip-path="url(#clip0)" transform="translate(-357 -344)"><path d="M366 348C366 347.724 365.775 347.5 365.499 347.501 365.386 347.501 365.276 347.539 365.188 347.61L362.825 349.5 360.5 349.5C360.224 349.5 360 349.724 360 350L360 354C360 354.276 360.224 354.5 360.5 354.5L362.825 354.5 365.188 356.39C365.404 356.562 365.718 356.527 365.891 356.311 365.961 356.223 366 356.113 366 356L366 348ZM369.025 352C369.027 353.194 368.552 354.339 367.707 355.182L367 354.475C367.657 353.819 368.026 352.929 368.025 352 368.026 351.072 367.657 350.181 367 349.525L367.707 348.818C368.552 349.661 369.027 350.806 369.025 352Z" fill="#FFFFFF"/></g></svg>