<svg width="16" height="16" xmlns="http://www.w3.org/2000/svg" xmlns:xlink="http://www.w3.org/1999/xlink" xml:space="preserve" overflow="hidden"><defs><clipPath id="clip0"><rect x="272" y="349" width="16" height="16"/></clipPath></defs><g clip-path="url(#clip0)" transform="translate(-272 -349)"><path d="M283.536 363.01C285.133 361.418 286.029 359.255 286.026 357 286.029 354.745 285.133 352.582 283.536 350.99L282.828 351.697C284.237 353.102 285.027 355.01 285.025 357 285.025 359.071 284.185 360.946 282.828 362.303L283.536 363.01Z" fill="#FFFFFF"/><path d="M282.121 361.596C283.342 360.378 284.027 358.724 284.025 357 284.027 355.276 283.342 353.622 282.121 352.404L281.414 353.111C282.447 354.141 283.027 355.541 283.025 357 283.027 358.459 282.448 359.859 281.415 360.89L282.121 361.596Z" fill="#FFFFFF"/><path d="M280.707 360.182C281.552 359.339 282.027 358.194 282.025 357 282.027 355.806 281.552 354.661 280.707 353.818L280 354.525C280.657 355.181 281.026 356.071 281.025 357 281.026 357.928 280.657 358.819 280 359.475L280.707 360.182ZM278.717 352.55C278.89 352.633 279 352.808 279 353L279 361C279 361.276 278.775 361.5 278.499 361.499 278.386 361.499 278.276 361.461 278.188 361.39L275.825 359.5 273.5 359.5C273.224 359.5 273 359.276 273 359L273 355C273 354.724 273.224 354.5 273.5 354.5L275.825 354.5 278.188 352.61C278.338 352.49 278.544 352.467 278.717 352.55Z" fill="#FFFFFF"/></g></svg>