<svg width="16" height="16" xmlns="http://www.w3.org/2000/svg" xmlns:xlink="http://www.w3.org/1999/xlink" xml:space="preserve" overflow="hidden"><defs><clipPath id="clip0"><rect x="228" y="352" width="16" height="16"/></clipPath></defs><g clip-path="url(#clip0)" transform="translate(-228 -352)"><path d="M234.717 355.55C234.89 355.633 235 355.808 235 356L235 364C235 364.276 234.775 364.5 234.499 364.499 234.386 364.499 234.276 364.461 234.188 364.39L231.825 362.5 229.5 362.5C229.224 362.5 229 362.276 229 362L229 358C229 357.724 229.224 357.5 229.5 357.5L231.825 357.5 234.188 355.61C234.338 355.49 234.544 355.467 234.717 355.55ZM241.854 357.646C242.049 357.841 242.05 358.158 241.855 358.353 241.855 358.353 241.854 358.354 241.854 358.354L240.207 360 241.854 361.646C242.049 361.842 242.049 362.159 241.854 362.354 241.658 362.549 241.342 362.549 241.146 362.354L239.5 360.707 237.854 362.354C237.658 362.549 237.342 362.549 237.146 362.354 236.95 362.159 236.95 361.842 237.146 361.646L238.793 360 237.146 358.354C236.95 358.158 236.95 357.842 237.146 357.646 237.342 357.451 237.658 357.451 237.854 357.646L239.5 359.293 241.146 357.646C241.341 357.451 241.658 357.45 241.853 357.645 241.853 357.645 241.854 357.646 241.854 357.646Z" fill="#FFFFFF"/></g></svg>